<svg width="63" height="185" viewBox="0 0 63 185" fill="none" xmlns="http://www.w3.org/2000/svg">
<g id="Vector" filter="url(#filter0_d_201_2991)">
<path d="M4.40851 158.648C3.96426 155.399 3.90336 152.282 4.12548 149.417C4.4515 145.164 5.32565 141.481 6.51865 138.523C7.72241 135.543 9.24143 133.249 11.2047 131.658C12.1577 135.071 13.2181 140.016 12.6915 145.422C12.2114 150.114 10.6315 153.478 8.91541 155.481C7.20651 157.556 5.41163 158.363 4.41209 158.648H4.40851Z" fill="white"/>
<path d="M4.33323 163.077C4.90286 165.728 5.75193 168.126 6.92702 170.184C9.41335 174.569 13.0318 176.528 16.4639 176.901C19.9068 177.346 23.0559 176.127 24.7469 175.315C24.625 174.701 24.3886 173.751 23.9981 172.615C23.4213 170.93 22.4934 168.872 21.1356 167.012C19.7778 165.146 18.0152 163.505 15.7689 162.38C14.4003 161.749 13.0891 161.337 11.8997 161.26C10.6959 161.118 9.58889 161.227 8.59651 161.43C6.60817 161.826 5.05333 162.632 4.33323 163.077Z" fill="white"/>
<path d="M19.1007 123.261C17.5208 125.55 16.4639 128.283 15.8513 131.57C15.5396 133.2 15.3569 134.989 15.2709 136.833C15.2064 138.715 15.2601 140.697 15.4679 142.727C15.7545 145.51 16.3457 148.396 17.3201 151.245C17.7608 150.893 18.3627 150.35 19.0219 149.593C19.6596 148.781 20.3653 147.771 20.9851 146.47C22.214 143.847 23.1669 140.175 22.7908 135.538C22.3788 130.28 20.5516 126.06 19.0971 123.261H19.1007Z" fill="white"/>
<path d="M17.7429 155.822C18.7173 158.072 19.9211 160.015 21.3506 161.452C24.4029 164.559 28.1145 165.003 31.389 164.026C34.6599 163.06 37.4472 160.788 38.8838 159.334C38.6652 158.818 38.2926 158.028 37.7517 157.133C36.1216 154.378 32.9044 150.97 28.333 150.712C26.9179 150.586 25.6783 150.828 24.5211 151.146C23.9479 151.316 23.4105 151.546 22.9054 151.804C22.3895 152.035 21.9059 152.304 21.458 152.595C20.5695 153.198 19.785 153.797 19.1544 154.378C18.531 154.971 18.051 155.498 17.7429 155.822Z" fill="white"/>
<path d="M24.7218 113.35C23.5646 116.132 22.9556 119.112 22.8552 122.438C22.8266 123.267 22.8409 124.123 22.8911 124.995C22.9233 125.846 22.9914 126.724 23.0989 127.624C23.3246 129.43 23.6721 131.274 24.1772 133.112C24.8794 135.615 25.879 138.128 27.2224 140.461C27.5843 139.961 28.0679 139.231 28.5731 138.282C29.0567 137.3 29.5475 136.07 29.9488 134.643C30.7011 131.724 31.0379 127.937 29.9989 123.689C28.8597 118.893 26.4952 115.496 24.7218 113.355V113.35Z" fill="white"/>
<path d="M28.7522 144.269C30.0276 146.031 31.4427 147.354 33.0298 148.188C33.8681 148.627 34.7208 148.907 35.577 149.049C36.4225 149.176 37.2609 149.148 38.0992 149.011C39.7902 148.764 41.3665 147.941 42.8425 146.931C44.2863 145.883 45.594 144.593 46.658 143.32C47.7041 142.025 48.5747 140.806 49.13 139.868C48.8434 139.456 48.3705 138.842 47.7328 138.205C45.7767 136.202 42.2084 134.138 37.8878 135.549C35.2259 136.372 33.2591 138.117 31.7329 139.841C30.9877 140.724 30.3644 141.613 29.8485 142.37C29.3433 143.139 28.9851 143.836 28.7486 144.275L28.7522 144.269Z" fill="white"/>
<path d="M28.9349 100.672C28.2829 103.713 28.179 106.77 28.6053 109.953C28.7092 110.743 28.8561 111.55 29.0388 112.356C29.2143 113.158 29.4078 113.953 29.6514 114.76C30.1351 116.368 30.7835 117.987 31.543 119.518C32.5963 121.604 33.9362 123.563 35.5806 125.237C35.8386 124.628 36.1897 123.772 36.4942 122.668C36.7772 121.549 37.0602 120.232 37.1964 118.734C37.44 115.715 37.1498 112.033 35.5161 108.433C33.689 104.36 30.9376 102.033 28.9349 100.672Z" fill="white"/>
<path d="M37.5081 128.837C38.9769 129.995 40.5174 130.719 42.1296 130.906C43.8493 131.12 45.5044 130.719 47.0091 129.847C48.546 129.007 49.9146 127.695 51.1255 126.214C52.3507 124.748 53.3216 123.036 54.1635 121.489C54.9517 119.902 55.5536 118.437 55.962 117.362C55.2777 116.78 53.7444 115.721 51.7381 115.391C49.714 115.04 47.3065 115.452 44.727 117.323C43.5447 118.19 42.5738 119.211 41.714 120.27C41.2913 120.803 40.9187 121.357 40.5748 121.917C40.2165 122.46 39.8941 123.014 39.611 123.558C39.3244 124.106 39.0737 124.644 38.8551 125.171C38.6187 125.681 38.4145 126.17 38.2353 126.625C37.8842 127.536 37.6478 128.321 37.5045 128.832L37.5081 128.837Z" fill="white"/>
<path d="M30.9161 87.6439C30.7334 90.772 31.1346 93.7191 31.998 96.5674C32.4638 97.9998 33.0047 99.3827 33.7141 100.727C34.4342 102.077 35.2403 103.351 36.2076 104.525C37.5116 106.106 39.0737 107.478 40.8649 108.465C41.0154 107.796 41.1945 106.857 41.3271 105.727C41.4525 104.591 41.4704 103.23 41.388 101.781C41.2769 100.321 41.0011 98.7516 40.521 97.1985C39.9908 95.6344 39.2994 94.0978 38.2604 92.6873C35.9138 89.4878 33.037 88.2475 30.9197 87.6439H30.9161Z" fill="white"/>
<path d="M43.4838 110.534C45.0458 111.083 46.5971 111.182 48.1376 110.787C49.7749 110.353 51.2688 109.371 52.5406 108.004C53.8483 106.654 54.9302 104.926 55.833 103.098C56.7573 101.276 57.3986 99.3279 57.9503 97.5772C58.4447 95.81 58.7815 94.224 59 93.0715C58.6418 92.9178 58.0793 92.7422 57.3771 92.6489C56.2773 92.4953 54.8299 92.5666 53.2715 93.2142C51.6915 93.8563 50.0901 95.0856 48.4565 97.1107C47.4856 98.351 46.7332 99.6626 46.0955 100.969C45.7838 101.622 45.5223 102.28 45.2859 102.928C45.0351 103.57 44.8201 104.201 44.6374 104.821C44.2863 106.062 44.0248 107.22 43.8278 108.202C43.6379 109.184 43.5447 110.013 43.4838 110.545V110.534Z" fill="white"/>
<path d="M30.8659 74.0829C31.149 77.1288 31.9873 79.8015 33.2161 82.1997C34.4772 84.5815 36.2112 86.6944 38.3715 88.2146C39.8439 89.2409 41.5062 89.9708 43.3369 90.2452C43.4158 88.8841 43.4408 86.4475 42.7996 83.7803C42.4879 82.4522 41.972 81.0747 41.302 79.785C40.5819 78.5008 39.6791 77.2989 38.5112 76.3275C35.8207 74.1268 32.9582 73.9347 30.8659 74.0884V74.0829Z" fill="white"/>
<path d="M46.2711 90.5251C47.8044 90.4482 49.284 89.9653 50.6598 89.0159C53.6154 87.0127 55.5428 83.0998 56.6714 79.0331C57.2267 77.008 57.5706 74.961 57.7999 73.128C57.9933 71.306 58.0757 69.698 58.1044 68.54C57.3485 68.54 55.7793 68.7156 54.0381 69.8023C52.2755 70.8834 50.3982 72.8426 48.8398 76.1135C47.3996 79.1319 46.7762 82.1339 46.461 84.7187C46.1851 87.2926 46.1958 89.4549 46.2747 90.5196L46.2711 90.5251Z" fill="white"/>
<path d="M28.7235 60.7525C29.4365 63.5459 30.6366 65.7905 32.1485 67.6345C33.6926 69.451 35.6415 70.8395 37.895 71.509C39.4247 71.9371 41.0978 72.0304 42.8497 71.6407C42.7816 70.9822 42.6598 70.0821 42.4413 69.0559C42.2192 68.0296 41.8466 66.8991 41.3665 65.7576C40.8721 64.6216 40.1843 63.513 39.3603 62.5361C38.5004 61.5757 37.4579 60.7744 36.2327 60.2531C33.3666 59.1171 30.6689 59.8909 28.7199 60.7525H28.7235Z" fill="white"/>
<path d="M45.6835 70.0767C47.1058 69.4291 48.4171 68.4357 49.5599 67.0527C51.9853 64.1002 53.1962 59.7592 53.6369 55.5663C54.0489 51.3899 53.6942 47.4495 53.379 45.2708C53.0458 45.397 52.5442 45.6275 51.9602 46.0061C50.0507 47.208 47.285 50.1551 45.8627 55.6706C44.9742 59.0018 44.8416 62.0367 44.9634 64.5612C45.01 65.8289 45.1533 66.9485 45.2966 67.8869C45.422 68.8309 45.5725 69.5827 45.6871 70.0767H45.6835Z" fill="white"/>
<path d="M24.9546 49.2166C26.0652 51.593 27.4195 53.4205 29.1678 54.6224C30.0097 55.248 30.9412 55.7145 31.955 56.0108C32.9367 56.3291 34.0007 56.4718 35.1185 56.406C36.6232 56.3127 38.1923 55.8462 39.783 54.9132C39.6433 54.2986 39.3782 53.5083 39.0235 52.6192C38.676 51.7247 38.1852 50.7643 37.5475 49.8697C36.9313 48.9587 36.1467 48.1245 35.208 47.4989C34.2945 46.8513 33.1874 46.4452 31.9515 46.3684C29.1499 46.1708 26.6385 47.8337 24.9582 49.2221L24.9546 49.2166Z" fill="white"/>
<path d="M42.1475 51.7247C43.3871 50.6435 44.4655 49.2606 45.3253 47.5702C47.1775 43.9811 47.6934 39.5083 47.4999 35.4417C47.4103 33.4111 47.113 31.5177 46.8121 29.8549C46.4753 28.2249 46.092 26.8584 45.7982 25.876C45.1605 26.37 43.9102 27.5499 42.7709 29.5805C41.6101 31.622 40.6213 34.4264 40.2308 38.1418C39.8869 41.5554 40.195 44.453 40.6679 46.7854C41.1551 49.1014 41.7928 50.8685 42.1511 51.7192L42.1475 51.7247Z" fill="white"/>
<path d="M20.0572 39.7772C21.39 41.7529 22.9699 43.0042 24.7433 43.6573C26.5131 44.2994 28.5337 44.2939 30.6044 43.5091C31.9944 42.9713 33.4131 42.0493 34.7889 40.6608C34.5596 40.1394 34.2228 39.4534 33.7786 38.718C33.32 37.9991 32.7217 37.2637 32.0195 36.5942C30.5936 35.288 28.6447 34.4044 26.2874 34.9972C23.604 35.6777 21.4688 37.9497 20.0572 39.7717V39.7772Z" fill="white"/>
<path d="M36.4404 36.232C37.4615 34.7996 38.2891 33.1587 38.8551 31.3147C40.0983 27.3468 39.9908 22.9784 39.2599 19.2355C38.5434 15.4817 37.225 12.4304 36.4046 10.7785C35.8601 11.459 34.839 12.9682 34.0437 15.2238C33.2484 17.4684 32.6357 20.5142 32.8041 24.0595C32.8543 25.7388 33.0549 27.2206 33.3522 28.5323C33.6317 29.8604 33.9792 31.0458 34.3697 32.0501C35.1149 34.0971 35.9926 35.5185 36.4404 36.232Z" fill="white"/>
<path d="M13.9167 31.9458C14.6726 32.7251 15.5002 33.2081 16.3134 33.6251C16.7254 33.8172 17.1517 33.9599 17.5888 34.0477C18.0152 34.1575 18.4451 34.2288 18.8893 34.2453C19.3336 34.2618 19.785 34.2288 20.2471 34.152C20.6949 34.0971 21.1499 33.9874 21.6121 33.8337C22.5328 33.5264 23.4894 32.9995 24.4101 32.308C25.6425 31.3915 26.8463 30.0854 27.9604 28.3621C27.4123 27.4786 26.3124 26.2108 24.8149 25.3821C24.0482 25.0089 23.1813 24.751 22.2498 24.729C21.2968 24.7455 20.265 25.0144 19.2046 25.6236C16.7612 27.0779 15.0309 29.8055 13.9202 31.9458H13.9167Z" fill="white"/>
<path d="M29.3075 23.9223C30.0885 22.2759 30.6438 20.5088 30.9483 18.5935C31.6219 14.4884 30.9734 10.4327 29.8449 7.12895C28.7235 3.80869 27.1221 1.33908 26.162 0C25.9614 0.356722 25.6927 0.921989 25.4096 1.6519C24.4495 4.0831 23.4607 8.46255 24.3671 13.539C24.6215 15.1031 24.994 16.4421 25.4311 17.5837C25.8539 18.7581 26.3304 19.7734 26.8248 20.6021C27.7956 22.2924 28.7737 23.4174 29.3111 23.9278L29.3075 23.9223Z" fill="white"/>
</g>
<defs>
<filter id="filter0_d_201_2991" x="0.000244141" y="0" width="62.9998" height="184.996" filterUnits="userSpaceOnUse" color-interpolation-filters="sRGB">
<feFlood flood-opacity="0" result="BackgroundImageFix"/>
<feColorMatrix in="SourceAlpha" type="matrix" values="0 0 0 0 0 0 0 0 0 0 0 0 0 0 0 0 0 0 127 0" result="hardAlpha"/>
<feOffset dy="4"/>
<feGaussianBlur stdDeviation="2"/>
<feComposite in2="hardAlpha" operator="out"/>
<feColorMatrix type="matrix" values="0 0 0 0 1 0 0 0 0 1 0 0 0 0 1 0 0 0 0.25 0"/>
<feBlend mode="normal" in2="BackgroundImageFix" result="effect1_dropShadow_201_2991"/>
<feBlend mode="normal" in="SourceGraphic" in2="effect1_dropShadow_201_2991" result="shape"/>
</filter>
</defs>
</svg>
