<svg width="63" height="185" viewBox="0 0 63 185" fill="none" xmlns="http://www.w3.org/2000/svg">
<g id="Vector" filter="url(#filter0_d_201_2990)">
<path d="M58.5915 158.648C59.0358 155.399 59.0967 152.282 58.8745 149.417C58.5485 145.164 57.6744 141.481 56.4814 138.523C55.2776 135.543 53.7586 133.249 51.7953 131.658C50.8424 135.071 49.7819 140.016 50.3086 145.422C50.7886 150.114 52.3686 153.478 54.0846 155.481C55.7935 157.556 57.5884 158.363 58.5879 158.648H58.5915Z" fill="white"/>
<path d="M58.6668 163.077C58.0972 165.728 57.2481 168.126 56.073 170.184C53.5867 174.569 49.9683 176.528 46.5362 176.901C43.0933 177.346 39.9442 176.127 38.2532 175.315C38.375 174.701 38.6115 173.751 39.002 172.615C39.5788 170.93 40.5066 168.872 41.8644 167.012C43.2222 165.146 44.9849 163.505 47.2312 162.38C48.5997 161.749 49.911 161.337 51.1004 161.26C52.3041 161.118 53.4112 161.227 54.4035 161.43C56.3919 161.826 57.9467 162.632 58.6668 163.077Z" fill="white"/>
<path d="M43.8994 123.261C45.4793 125.55 46.5361 128.283 47.1488 131.57C47.4605 133.2 47.6432 134.989 47.7292 136.833C47.7936 138.715 47.7399 140.697 47.5321 142.727C47.2455 145.51 46.6544 148.396 45.6799 151.245C45.2393 150.893 44.6374 150.35 43.9782 149.593C43.3405 148.781 42.6347 147.771 42.0149 146.47C40.7861 143.847 39.8331 140.175 40.2093 135.538C40.6213 130.28 42.4484 126.06 43.9029 123.261H43.8994Z" fill="white"/>
<path d="M45.2572 155.822C44.2827 158.072 43.0789 160.015 41.6495 161.452C38.5971 164.559 34.8856 165.003 31.6111 164.026C28.3402 163.06 25.5529 160.788 24.1163 159.334C24.3348 158.818 24.7074 158.028 25.2484 157.133C26.8785 154.378 30.0956 150.97 34.667 150.712C36.0821 150.586 37.3217 150.828 38.4789 151.146C39.0521 151.316 39.5895 151.546 40.0946 151.804C40.6105 152.035 41.0942 152.304 41.542 152.595C42.4305 153.198 43.2151 153.797 43.8456 154.378C44.469 154.971 44.9491 155.498 45.2572 155.822Z" fill="white"/>
<path d="M38.2783 113.35C39.4354 116.132 40.0445 119.112 40.1448 122.438C40.1735 123.267 40.1591 124.123 40.109 124.995C40.0767 125.846 40.0087 126.724 39.9012 127.624C39.6755 129.43 39.328 131.274 38.8228 133.112C38.1206 135.615 37.1211 138.128 35.7776 140.461C35.4158 139.961 34.9321 139.231 34.427 138.282C33.9433 137.3 33.4525 136.07 33.0513 134.643C32.2989 131.724 31.9622 127.937 33.0011 123.689C34.1404 118.893 36.5049 115.496 38.2783 113.355V113.35Z" fill="white"/>
<path d="M34.2478 144.269C32.9724 146.031 31.5573 147.354 29.9702 148.188C29.1319 148.627 28.2792 148.907 27.423 149.049C26.5775 149.176 25.7392 149.148 24.9009 149.011C23.2099 148.764 21.6335 147.941 20.1575 146.931C18.7137 145.883 17.4061 144.593 16.342 143.32C15.2959 142.025 14.4253 140.806 13.87 139.868C14.1567 139.456 14.6296 138.842 15.2673 138.205C17.2234 136.202 20.7916 134.138 25.1122 135.549C27.7741 136.372 29.7409 138.117 31.2671 139.841C32.0123 140.724 32.6357 141.613 33.1516 142.37C33.6567 143.139 34.015 143.836 34.2514 144.275L34.2478 144.269Z" fill="white"/>
<path d="M34.0651 100.672C34.7172 103.713 34.8211 106.77 34.3947 109.953C34.2908 110.743 34.144 111.55 33.9612 112.356C33.7857 113.158 33.5922 113.953 33.3486 114.76C32.865 116.368 32.2165 117.987 31.457 119.518C30.4037 121.604 29.0638 123.563 27.4194 125.237C27.1615 124.628 26.8104 123.772 26.5059 122.668C26.2228 121.549 25.9398 120.232 25.8037 118.734C25.5601 115.715 25.8502 112.033 27.4839 108.433C29.311 104.36 32.0625 102.033 34.0651 100.672Z" fill="white"/>
<path d="M25.492 128.837C24.0231 129.995 22.4826 130.719 20.8704 130.906C19.1508 131.12 17.4956 130.719 15.9909 129.847C14.454 129.007 13.0855 127.695 11.8745 126.214C10.6493 124.748 9.67841 123.036 8.8365 121.489C8.04833 119.902 7.44646 118.437 7.03804 117.362C7.72232 116.78 9.25566 115.721 11.2619 115.391C13.2861 115.04 15.6936 115.452 18.2731 117.323C19.4553 118.19 20.4262 119.211 21.286 120.27C21.7088 120.803 22.0814 121.357 22.4253 121.917C22.7835 122.46 23.106 123.014 23.389 123.558C23.6756 124.106 23.9264 124.644 24.1449 125.171C24.3814 125.681 24.5856 126.17 24.7647 126.625C25.1158 127.536 25.3523 128.321 25.4956 128.832L25.492 128.837Z" fill="white"/>
<path d="M32.084 87.6439C32.2667 90.772 31.8654 93.7191 31.002 96.5674C30.5363 97.9998 29.9953 99.3827 29.286 100.727C28.5659 102.077 27.7598 103.351 26.7925 104.525C25.4884 106.106 23.9264 107.478 22.1351 108.465C21.9846 107.796 21.8055 106.857 21.6729 105.727C21.5476 104.591 21.5296 103.23 21.612 101.781C21.7231 100.321 21.999 98.7516 22.479 97.1985C23.0092 95.6344 23.7007 94.0978 24.7396 92.6873C27.0862 89.4878 29.9631 88.2475 32.0804 87.6439H32.084Z" fill="white"/>
<path d="M19.5162 110.534C17.9542 111.083 16.4029 111.182 14.8624 110.787C13.2252 110.353 11.7312 109.371 10.4594 108.004C9.15177 106.654 8.06983 104.926 7.16702 103.098C6.24271 101.276 5.60142 99.3279 5.0497 97.5772C4.55531 95.81 4.21854 94.224 4 93.0715C4.35826 92.9178 4.92073 92.7422 5.62291 92.6489C6.72277 92.4953 8.17014 92.5666 9.72857 93.2142C11.3085 93.8563 12.9099 95.0856 14.5436 97.1107C15.5145 98.351 16.2668 99.6626 16.9045 100.969C17.2162 101.622 17.4777 102.28 17.7142 102.928C17.965 103.57 18.1799 104.201 18.3626 104.821C18.7137 106.062 18.9752 107.22 19.1723 108.202C19.3622 109.184 19.4553 110.013 19.5162 110.545V110.534Z" fill="white"/>
<path d="M32.1341 74.0829C31.8511 77.1288 31.0128 79.8015 29.7839 82.1997C28.5229 84.5815 26.7889 86.6944 24.6286 88.2146C23.1561 89.2409 21.4938 89.9708 19.6631 90.2452C19.5843 88.8841 19.5592 86.4475 20.2005 83.7803C20.5122 82.4522 21.0281 81.0747 21.698 79.785C22.4181 78.5008 23.3209 77.2989 24.4889 76.3275C27.1794 74.1268 30.0419 73.9347 32.1341 74.0884V74.0829Z" fill="white"/>
<path d="M16.729 90.5251C15.1956 90.4482 13.716 89.9653 12.3403 89.0159C9.38464 87.0127 7.45721 83.0998 6.32869 79.0331C5.77339 77.008 5.42946 74.961 5.20017 73.128C5.00671 71.306 4.92431 69.698 4.89565 68.54C5.65158 68.54 7.22076 68.7156 8.9619 69.8023C10.7245 70.8834 12.6018 72.8426 14.1602 76.1135C15.6004 79.1319 16.2238 82.1339 16.5391 84.7187C16.8149 87.2926 16.8042 89.4549 16.7254 90.5196L16.729 90.5251Z" fill="white"/>
<path d="M34.2765 60.7525C33.5636 63.5459 32.3634 65.7905 30.8516 67.6345C29.3075 69.451 27.3585 70.8395 25.1051 71.509C23.5753 71.9371 21.9022 72.0304 20.1503 71.6407C20.2184 70.9822 20.3402 70.0821 20.5588 69.0559C20.7809 68.0296 21.1535 66.8991 21.6335 65.7576C22.1279 64.6216 22.8158 63.513 23.6398 62.5361C24.4996 61.5757 25.5421 60.7744 26.7674 60.2531C29.6335 59.1171 32.3312 59.8909 34.2801 60.7525H34.2765Z" fill="white"/>
<path d="M17.3165 70.0767C15.8942 69.4291 14.583 68.4357 13.4401 67.0527C11.0147 64.1002 9.8038 59.7592 9.36314 55.5663C8.95115 51.3899 9.30582 47.4495 9.62109 45.2708C9.95427 45.397 10.4558 45.6275 11.0398 46.0061C12.9493 47.208 15.7151 50.1551 17.1374 55.6706C18.0259 59.0018 18.1584 62.0367 18.0366 64.5612C17.99 65.8289 17.8467 66.9485 17.7034 67.8869C17.578 68.8309 17.4276 69.5827 17.3129 70.0767H17.3165Z" fill="white"/>
<path d="M38.0454 49.2166C36.9348 51.593 35.5806 53.4205 33.8323 54.6224C32.9904 55.248 32.0589 55.7145 31.045 56.0108C30.0634 56.3291 28.9993 56.4718 27.8816 56.406C26.3769 56.3127 24.8077 55.8462 23.217 54.9132C23.3568 54.2986 23.6219 53.5083 23.9765 52.6192C24.3241 51.7247 24.8149 50.7643 25.4526 49.8697C26.0688 48.9587 26.8534 48.1245 27.792 47.4989C28.7056 46.8513 29.8126 46.4452 31.0486 46.3684C33.8502 46.1708 36.3616 47.8337 38.0418 49.2221L38.0454 49.2166Z" fill="white"/>
<path d="M20.8525 51.7247C19.6129 50.6435 18.5346 49.2606 17.6748 47.5702C15.8226 43.9811 15.3067 39.5083 15.5001 35.4417C15.5897 33.4111 15.8871 31.5177 16.188 29.8549C16.5248 28.2249 16.9081 26.8584 17.2019 25.876C17.8396 26.37 19.0899 27.5499 20.2292 29.5805C21.3899 31.622 22.3787 34.4264 22.7692 38.1418C23.1131 41.5554 22.805 44.453 22.3321 46.7854C21.8449 49.1014 21.2072 50.8685 20.8489 51.7192L20.8525 51.7247Z" fill="white"/>
<path d="M42.9428 39.7772C41.6101 41.7529 40.0302 43.0042 38.2568 43.6573C36.487 44.2994 34.4664 44.2939 32.3956 43.5091C31.0056 42.9713 29.5869 42.0493 28.2112 40.6608C28.4405 40.1394 28.7772 39.4534 29.2215 38.718C29.68 37.9991 30.2783 37.2637 30.9805 36.5942C32.4064 35.288 34.3553 34.4044 36.7127 34.9972C39.396 35.6777 41.5313 37.9497 42.9428 39.7717V39.7772Z" fill="white"/>
<path d="M26.5596 36.232C25.5386 34.7996 24.711 33.1587 24.1449 31.3147C22.9018 27.3468 23.0092 22.9784 23.7401 19.2355C24.4566 15.4817 25.775 12.4304 26.5954 10.7785C27.14 11.459 28.161 12.9682 28.9564 15.2238C29.7517 17.4684 30.3643 20.5142 30.1959 24.0595C30.1458 25.7388 29.9452 27.2206 29.6478 28.5323C29.3684 29.8604 29.0208 31.0458 28.6303 32.0501C27.8852 34.0971 27.0074 35.5185 26.5596 36.232Z" fill="white"/>
<path d="M49.0834 31.9458C48.3274 32.7251 47.4999 33.2081 46.6866 33.6251C46.2746 33.8172 45.8483 33.9599 45.4112 34.0477C44.9849 34.1575 44.555 34.2288 44.1107 34.2453C43.6665 34.2618 43.2151 34.2288 42.7529 34.152C42.3051 34.0971 41.8501 33.9874 41.388 33.8337C40.4672 33.5264 39.5107 32.9995 38.59 32.308C37.3575 31.3915 36.1538 30.0854 35.0396 28.3621C35.5877 27.4786 36.6876 26.2108 38.1851 25.3821C38.9518 25.0089 39.8188 24.751 40.7503 24.729C41.7032 24.7455 42.735 25.0144 43.7955 25.6236C46.2388 27.0779 47.9692 29.8055 49.0798 31.9458H49.0834Z" fill="white"/>
<path d="M33.6925 23.9223C32.9115 22.2759 32.3562 20.5088 32.0517 18.5935C31.3782 14.4884 32.0266 10.4327 33.1552 7.12895C34.2765 3.80869 35.8779 1.33908 36.8381 0C37.0387 0.356722 37.3074 0.921989 37.5904 1.6519C38.5505 4.0831 39.5393 8.46255 38.6329 13.539C38.3786 15.1031 38.006 16.4421 37.5689 17.5837C37.1462 18.7581 36.6697 19.7734 36.1753 20.6021C35.2044 22.2924 34.2264 23.4174 33.689 23.9278L33.6925 23.9223Z" fill="white"/>
</g>
<defs>
<filter id="filter0_d_201_2990" x="0" y="0" width="62.9998" height="184.996" filterUnits="userSpaceOnUse" color-interpolation-filters="sRGB">
<feFlood flood-opacity="0" result="BackgroundImageFix"/>
<feColorMatrix in="SourceAlpha" type="matrix" values="0 0 0 0 0 0 0 0 0 0 0 0 0 0 0 0 0 0 127 0" result="hardAlpha"/>
<feOffset dy="4"/>
<feGaussianBlur stdDeviation="2"/>
<feComposite in2="hardAlpha" operator="out"/>
<feColorMatrix type="matrix" values="0 0 0 0 1 0 0 0 0 1 0 0 0 0 1 0 0 0 0.25 0"/>
<feBlend mode="normal" in2="BackgroundImageFix" result="effect1_dropShadow_201_2990"/>
<feBlend mode="normal" in="SourceGraphic" in2="effect1_dropShadow_201_2990" result="shape"/>
</filter>
</defs>
</svg>
